<svg
version="1.1"
xmlns="http://www.w3.org/2000/svg"
xmlns:xlink="http://www.w3.org/1999/xlink"
viewBox="0 0 60 60"
xml:space="preserve"
data-animoptions="{'duration':'0.8', 'repeat':'2', 'repeatDelay':'0'}"
preserveAspectRatio="xMinYMin meet"
style="left: 0px; top: 0.492188px;">
<g class="lievo-setrotation">
    <g
    class="lievo-setsharp"
    data-svg-origin="30.625 30"
    transform="matrix(1,0,0,1,-0.625,-0.625)"
    style="transform-origin: 0px 0px 0px;">
    <g class="lievo-setflip">
        <g class="lievo-main">
        <g class="lievo-common">
            <g>
            <path
                class="lievo-altstroke lievo-donotdraw lievo-savelinecap"
                fill="none"
                stroke="#8baff3ad"
                stroke-width="3.25px"
                stroke-linecap="round"
                stroke-miterlimit="10"
                d="M21.48,43.49C23.65,41.32,25,38.32,25,35c0-3.31-1.34-6.31-3.51-8.49"
                opacity="0"
                style="opacity: 0;"
                data-original="M15.83,32.17C16.55,32.9,17,33.9,17,35c0,1.11-0.45,2.11-1.17,2.83"></path>
            <path
                class="lievo-altstroke lievo-donotdraw lievo-savelinecap"
                fill="none"
                stroke="#8baff3ad"
                stroke-width="3.25px"
                stroke-linecap="round"
                stroke-miterlimit="10"
                d="M21.48,43.49C23.65,41.32,25,38.32,25,35c0-3.31-1.34-6.31-3.51-8.49"
                opacity="0"
                style="opacity: 0;"
                data-original="M15.83,32.17C16.55,32.9,17,33.9,17,35c0,1.11-0.45,2.11-1.17,2.83"></path>
            <path
                class="lievo-altstroke lievo-donotdraw lievo-savelinecap"
                fill="none"
                stroke="#8baff3ad"
                stroke-width="3.25px"
                stroke-linecap="round"
                stroke-miterlimit="10"
                d="M21.48,43.49C23.65,41.32,25,38.32,25,35c0-3.31-1.34-6.31-3.51-8.49"
                opacity="0"
                style="opacity: 0;"
                data-original="M15.83,32.17C16.55,32.9,17,33.9,17,35c0,1.11-0.45,2.11-1.17,2.83"></path>
            </g>
            <g>
            <path
                class="lievo-altstroke lievo-donotdraw lievo-savelinecap"
                fill="none"
                stroke="#8baff3ad"
                stroke-width="3.25px"
                stroke-linecap="round"
                stroke-miterlimit="10"
                d="M38.52,43.49C36.35,41.32,35,38.32,35,35c0-3.31,1.34-6.31,3.51-8.49"
                opacity="0"
                style="opacity: 0;"
                data-original="M44.17,32.17C43.45,32.9,43,33.9,43,35c0,1.11,0.45,2.11,1.17,2.83"></path>
            <path
                class="lievo-altstroke lievo-donotdraw lievo-savelinecap"
                fill="none"
                stroke="#8baff3ad"
                stroke-width="3.25px"
                stroke-linecap="round"
                stroke-miterlimit="10"
                d="M38.52,43.49C36.35,41.32,35,38.32,35,35c0-3.31,1.34-6.31,3.51-8.49"
                opacity="0"
                style="opacity: 0;"
                data-original="M44.17,32.17C43.45,32.9,43,33.9,43,35c0,1.11,0.45,2.11,1.17,2.83"></path>
            <path
                class="lievo-altstroke lievo-donotdraw lievo-savelinecap"
                fill="none"
                stroke="#8baff3ad"
                stroke-width="3.25px"
                stroke-linecap="round"
                stroke-miterlimit="10"
                d="M38.52,43.49C36.35,41.32,35,38.32,35,35c0-3.31,1.34-6.31,3.51-8.49"
                opacity="0"
                style="opacity: 0;"
                data-original="M44.17,32.17C43.45,32.9,43,33.9,43,35c0,1.11,0.45,2.11,1.17,2.83"></path>
            </g>
        </g>

        <g class="lievo-filledicon lievo-lineicon">
            <path
            class="lievo-altstroke"
            fill="none"
            stroke="#8baff3ad"
            stroke-width="3.25px"
            stroke-linecap="round"
            stroke-miterlimit="10"
            d="M13,25c0-8.28,7.61-16,17-16s17,7.72,17,16"
            style=""></path>
            <g>
            <path
                fill="none"
                stroke="#8baff3ad"
                stroke-width="3.25px"
                stroke-linecap="square"
                stroke-miterlimit="10"
                d="M6,35c0,4.42,2.24,8,5,8V27C8.24,27,6,30.58,6,35z"
                style=""></path>
            <path
                fill="none"
                stroke="#8baff3ad"
                stroke-width="3.25px"
                stroke-linecap="square"
                stroke-miterlimit="10"
                d="M11,35v8c0,2.64,4,2.65,4,0c0-5.91,0-16,0-16c0-2.64-4-2.65-4,0V35z"
                style=""></path>
            </g>
            <g>
            <path
                fill="none"
                stroke="#8baff3ad"
                stroke-width="3.25px"
                stroke-linecap="square"
                stroke-miterlimit="10"
                d="M54,35c0,4.42-2.24,8-5,8V27C51.76,27,54,30.58,54,35z"
                style=""></path>
            <path
                fill="none"
                stroke="#8baff3ad"
                stroke-width="3.25px"
                stroke-linecap="square"
                stroke-miterlimit="10"
                d="M49,35v8c0,2.64-4,2.65-4,0c0-5.91,0-16,0-16c0-2.64,4-2.65,4,0V35z"
                style=""></path>
            </g>
        </g>

        <rect
            x="-19"
            y="-19"
            width="4"
            height="4"
            fill="none"
            stroke="#8baff3ad"
            style="stroke-width: 2; stroke-linecap: butt; stroke-linejoin: round; opacity: 0;"
            class="lievo-checkshift lievo-donotdraw lievo-nohoverstroke lievo-nohovercolor"
            stroke-width="3.25px"></rect>
        </g>
    </g>
    </g>
</g>

<desc>LivIcons Evolution</desc>
<defs></defs>
</svg>